<svg width="926" height="749" viewBox="0 0 926 749" fill="none" xmlns="http://www.w3.org/2000/svg">
<path d="M462.99 605.5C224.904 605.5 31.8095 669.701 31 749H894.981C894.171 669.701 701.077 605.5 462.99 605.5Z" fill="#F2F2F2"/>
<g opacity="0.1">
<path opacity="0.1" d="M382.99 714.222C427.173 714.222 462.99 704.273 462.99 692C462.99 679.727 427.173 669.778 382.99 669.778C338.808 669.778 302.99 679.727 302.99 692C302.99 704.273 338.808 714.222 382.99 714.222Z" fill="black"/>
</g>
<g opacity="0.1">
<path opacity="0.1" d="M555.99 674.222C600.173 674.222 635.99 664.273 635.99 652C635.99 639.727 600.173 629.778 555.99 629.778C511.808 629.778 475.99 639.727 475.99 652C475.99 664.273 511.808 674.222 555.99 674.222Z" fill="black"/>
</g>
<g opacity="0.1">
<path opacity="0.1" d="M382.99 712C422.755 712 454.99 703.046 454.99 692C454.99 680.954 422.755 672 382.99 672C343.226 672 310.99 680.954 310.99 692C310.99 703.046 343.226 712 382.99 712Z" fill="black"/>
</g>
<g opacity="0.1">
<path opacity="0.1" d="M555.99 672C595.755 672 627.99 663.046 627.99 652C627.99 640.954 595.755 632 555.99 632C516.226 632 483.99 640.954 483.99 652C483.99 663.046 516.226 672 555.99 672Z" fill="black"/>
</g>
<path d="M709.99 433.322H708.168V431.5H707.812V433.322H705.99V433.678H707.812V435.5H708.168V433.678H709.99V433.322Z" fill="#F2F2F2"/>
<path d="M710.862 230.689H707.988V288.753H710.862V230.689Z" fill="#E6E6E6"/>
<path d="M642.738 385.046L616.293 445.984L621.467 454.607L619.742 457.481L631.815 463.805V460.356L636.414 459.206L655.96 423.563L642.738 385.046Z" fill="#E6E6E6"/>
<path d="M622.042 456.907C622.042 456.907 602.496 487.375 624.342 491.975C646.187 496.574 628.366 459.781 628.366 459.781L622.042 456.907Z" fill="#E6E6E6"/>
<path d="M650.212 443.109L643.313 465.53L640.439 494.274L635.265 504.622L641.013 551.188L650.212 560.386L654.236 606.377V627.073L665.159 646.044L651.093 666.008C650.429 666.946 650.032 668.047 649.944 669.192C649.855 670.338 650.079 671.486 650.591 672.515C651.103 673.543 651.884 674.414 652.851 675.035C653.818 675.655 654.935 676.002 656.083 676.039C659.189 676.121 663.282 675.243 668.608 672.489C685.28 663.865 684.705 655.817 684.705 655.817C684.705 655.817 695.053 655.817 695.628 647.768C696.202 639.72 689.304 582.232 689.304 582.232L682.98 557.512V490.25H685.28L686.429 547.738L691.603 569.009L692.178 578.207L699.652 670.189C699.652 670.189 732.995 679.387 734.72 671.914C736.444 664.44 722.072 659.841 722.072 659.841L730.695 643.169V610.976L727.821 604.077L722.647 557.512L731.27 548.313L735.869 542.564V496.574L730.121 478.752L728.396 463.805L719.198 440.81C719.198 440.81 677.231 427.013 650.212 443.109Z" fill="white"/>
<path d="M724.947 313.185C724.947 320.1 723.306 326.916 720.158 333.073C717.011 339.23 712.447 344.553 706.842 348.602C701.237 352.652 694.75 355.313 687.916 356.367C681.082 357.421 674.096 356.838 667.531 354.666C660.966 352.494 655.01 348.795 650.154 343.872C645.297 338.95 641.678 332.945 639.595 326.352C637.511 319.758 637.022 312.764 638.168 305.945C639.314 299.126 642.063 292.676 646.187 287.126L646.199 287.114C651.679 279.742 659.343 274.285 668.103 271.519C676.862 268.753 686.27 268.818 694.99 271.705C703.71 274.591 711.299 280.154 716.676 287.6C722.054 295.047 724.948 304 724.947 313.185Z" fill="#6C63FF"/>
<g opacity="0.1">
<path opacity="0.1" d="M718.738 295.071L715.174 315.485C688.39 245.958 645.785 288.666 645.049 289.414C649.452 283.492 655.284 278.782 661.999 275.724C668.715 272.665 676.096 271.357 683.453 271.922C690.811 272.487 697.906 274.906 704.076 278.954C710.246 283.002 715.29 288.546 718.738 295.071Z" fill="black"/>
</g>
<path d="M719.888 292.771L716.323 313.185C689.539 243.659 646.935 286.367 646.199 287.114C650.602 281.193 656.434 276.483 663.149 273.424C669.865 270.365 677.246 269.057 684.603 269.622C691.961 270.187 699.056 272.606 705.226 276.654C711.396 280.702 716.44 286.247 719.888 292.771Z" fill="white"/>
<path d="M713.898 284.153L719.888 304.943C719.888 304.943 707.455 342.206 649.802 343.505L647.912 348.828L641.588 350.553L638.714 362.625L646.762 439.085C646.762 439.085 643.313 446.559 649.062 445.984C649.062 445.984 687.004 433.336 719.773 444.834C719.773 444.834 726.671 447.708 724.947 441.385C724.947 441.385 747.942 427.013 746.218 412.066C744.493 397.119 747.942 327.557 747.942 327.557C747.942 327.557 751.391 307.436 741.044 302.837C741.043 302.837 725.846 281.565 713.898 284.153Z" fill="white"/>
<path d="M701.295 429.418C701.295 429.418 665.277 433.035 675.247 453.009C685.217 472.983 702.972 436.158 702.972 436.158L701.295 429.418Z" fill="#E6E6E6"/>
<path d="M719.773 340.205C719.773 340.205 713.449 347.678 715.749 359.751C718.048 371.824 726.671 398.843 726.671 398.843L696.202 427.013L705.401 439.66L746.792 418.389L755.99 412.64C753.703 389.388 748.012 366.598 739.099 345L737.594 341.355C737.594 341.355 726.671 336.756 719.773 340.205Z" fill="#E6E6E6"/>
<path d="M716.898 319.796C722.772 319.796 727.534 315.035 727.534 309.161C727.534 303.287 722.772 298.526 716.898 298.526C711.024 298.526 706.263 303.287 706.263 309.161C706.263 315.035 711.024 319.796 716.898 319.796Z" fill="#E6E6E6"/>
<path d="M709.425 238.163C713.711 238.163 717.186 234.688 717.186 230.402C717.186 226.116 713.711 222.641 709.425 222.641C705.138 222.641 701.664 226.116 701.664 230.402C701.664 234.688 705.138 238.163 709.425 238.163Z" fill="#E6E6E6"/>
<path d="M675.99 296.322H674.168V294.5H673.812V296.322H671.99V296.678H673.812V298.5H674.168V296.678H675.99V296.322Z" fill="#F2F2F2"/>
<path d="M657.99 313.322H656.168V311.5H655.812V313.322H653.99V313.678H655.812V315.5H656.168V313.678H657.99V313.322Z" fill="#F2F2F2"/>
<path d="M389.948 295.195C389.948 574.239 354.86 574.239 311.589 574.239C289.217 574.239 269.035 574.239 254.763 535.693C250.66 524.615 247.035 510.331 243.996 491.943C237.153 450.61 233.229 388.496 233.229 295.194C233.229 259.317 237.476 224.144 243.996 191.293C247.13 175.478 250.791 160.213 254.763 145.653C259.62 127.828 264.944 111.067 270.315 95.7303C273.916 85.4179 277.553 75.7396 281.082 66.803C297.388 25.5536 311.589 0 311.589 0C311.589 0 389.948 141.083 389.948 295.195Z" fill="#F2F2F2"/>
<g opacity="0.1">
<path opacity="0.1" d="M281.082 66.803V553.303H270.315V95.7303C273.916 85.418 277.553 75.7397 281.082 66.803Z" fill="black"/>
</g>
<path d="M309.196 235.677C332.982 235.677 352.264 216.395 352.264 192.609C352.264 168.823 332.982 149.541 309.196 149.541C285.41 149.541 266.128 168.823 266.128 192.609C266.128 216.395 285.41 235.677 309.196 235.677Z" fill="#3F3D56"/>
<path d="M403.706 547.919C394.13 524.348 381.835 520.281 373.798 520.634V516.815H248.183V520.634C240.146 520.281 227.851 524.348 218.275 547.919C202.723 586.202 227.845 652 227.845 652C227.845 652 214.419 560.233 259.004 559.629C262.865 564.666 267.603 568.964 272.99 572.319V597H344.99V574.566C352.029 570.996 358.175 565.892 362.977 559.629C407.562 560.233 394.135 652 394.135 652C394.135 652 419.258 586.202 403.706 547.919Z" fill="#6C63FF"/>
<path d="M309.196 226.106C327.696 226.106 342.693 211.109 342.693 192.609C342.693 174.109 327.696 159.112 309.196 159.112C290.696 159.112 275.699 174.109 275.699 192.609C275.699 211.109 290.696 226.106 309.196 226.106Z" fill="#6C63FF"/>
</svg>
